<svg width="54" height="54" viewBox="0 0 54 54" fill="none" xmlns="http://www.w3.org/2000/svg"><path d="M27.516 4.654H54v4.586H27.516z" fill="#5FFFBA
"/><path d="M19.111 29.878H3.819C1.713 29.878 0 31.59 0 33.697v15.284c0 2.107 1.713 3.819 3.819 3.819h15.284c2.107 0 3.819 -1.713 3.819 -3.819V33.697c0.007 -2.107 -1.705 -3.819 -3.812 -3.819m-0.767 16.216c0 1.175 -0.953 2.128 -2.128 2.128H6.714c-1.175 0 -2.128 -0.953 -2.128 -2.128V36.592c0 -1.175 0.953 -2.128 2.128 -2.128H16.223c1.175 0 2.128 0.953 2.128 2.128v9.502z" fill="#FFD561
"/><path d="M27.516 33.317H54v4.586H27.516z" fill="#5FFFBA
"/><path d="M19.111 1.215H3.819C1.713 1.215 0 2.928 0 5.034v15.284c0 2.107 1.713 3.819 3.819 3.819h15.284c2.107 0 3.819 -1.713 3.819 -3.819V5.034C22.93 2.928 21.217 1.215 19.111 1.215m-0.767 16.216c0 1.175 -0.953 2.128 -2.128 2.128H6.714c-1.175 0 -2.128 -0.953 -2.128 -2.128V7.929c0 -1.175 0.953 -2.128 2.128 -2.128H16.223c1.175 0 2.128 0.953 2.128 2.128v9.502z" fill="#FFA28D
"/><path d="M27.516 16.12H54v4.586H27.516zm0 28.662H54v4.586H27.516z" fill="#5FFFBA
"/></svg>