<svg width="54" height="54" viewBox="0 0 54 54" fill="none" xmlns="http://www.w3.org/2000/svg"><path d="M46.163 7.631v10.915a2.83 2.83 0 0 1 -2.749 2.749H32.499a2.83 2.83 0 0 1 -2.749 -2.749V7.631A8.206 8.206 0 0 1 37.936 0a8.206 8.206 0 0 1 8.186 7.631m-8.207 30.037a2.83 2.83 0 0 0 -2.749 2.749v1.375a6.832 6.832 0 0 1 -13.664 0V15.797a8.207 8.207 0 0 0 -16.373 0v27.288a2.749 2.749 0 0 0 2.729 2.416 2.749 2.749 0 0 0 2.729 -2.416V15.797a2.749 2.749 0 0 1 5.458 0v25.913a12.29 12.29 0 1 0 24.579 0v-1.374a2.83 2.83 0 0 0 -2.749 -2.749" fill="black"/><path d="M46.163 15.797H29.79a2.83 2.83 0 0 0 -2.749 2.749v13.139a11.32 11.32 0 0 0 9.824 11.4A10.915 10.915 0 0 0 48.871 32.17V18.546a2.83 2.83 0 0 0 -2.749 -2.749" fill="#2CA9BC
"/></svg>