<svg width="54px" height="54px" viewBox="0 0 6.75 6.75" xmlns="http://www.w3.org/2000/svg"><path fill="#1C3C50" d="M6.615 0.675h-0.27c-0.075 0 -0.608 0.33 -0.608 0.405H4.995v1.755h0.743c0 0.075 0.533 0.405 0.608 0.405h0.27a0.135 0.135 0 0 0 0.135 -0.135V0.81a0.135 0.135 0 0 0 -0.135 -0.135M4.724 3.278c0 0.145 0.001 0.232 0.001 0.232v-0.203zM0.81 3.915a0.135 0.135 0 0 0 0.135 0.135h0.605c0.122 0.177 0.301 0.405 0.408 0.405h0.135c0.373 0 0.675 0.302 0.675 0.675V6.48a0.27 0.27 0 0 0 0.27 0.27h0.878a0.27 0.27 0 0 0 0.27 -0.27V4.455h0.338c0.149 0 0.203 -0.053 0.203 -0.202v-0.743H0.81z"/><path fill="#EBEEEF" d="M4.725 0H0.81C0.363 0 0 0.363 0 0.81v1.89c0 0.447 0.363 0.81 0.81 0.81h3.915c-0.003 0 -0.005 -3.514 0 -3.51"/><path fill="#C8CBCB" d="M1.823 1.013h-0.405a0.135 0.135 0 0 0 -0.135 0.135v0.405a0.135 0.135 0 0 0 0.135 0.135h0.405a0.135 0.135 0 0 0 0.135 -0.135v-0.405a0.135 0.135 0 0 0 -0.135 -0.135"/><path fill="#23475F" d="M4.86 0h-0.135v3.51h0.135a0.135 0.135 0 0 0 0.135 -0.135V0.135a0.135 0.135 0 0 0 -0.135 -0.135m0.878 1.08h-0.203v1.755h0.203z"/><path fill="#ffffff" d="M3.645 0.81a0.405 0.405 0 1 0 0.405 0.405c0 -0.224 -0.181 -0.405 -0.405 -0.405"/><path fill="#FF4B39" d="M3.645 0.945a0.27 0.27 0 1 0 0 0.54 0.27 0.27 0 0 0 0 -0.54"/><path fill="#00BD9C" d="M2.498 0.945H0.878a0.135 0.135 0 0 0 -0.135 0.135v0.27a0.135 0.135 0 0 0 0.135 0.135h1.62a0.135 0.135 0 0 0 0.135 -0.135v-0.27a0.135 0.135 0 0 0 -0.135 -0.135"/><path fill="#1C3C50" d="M1.89 0.878h-0.405a0.135 0.135 0 0 0 -0.135 0.135v0.405a0.135 0.135 0 0 0 0.135 0.135h0.405a0.135 0.135 0 0 0 0.135 -0.135v-0.405a0.135 0.135 0 0 0 -0.135 -0.135"/><path fill="#23475F" d="M1.755 0.878h-0.135v0.675h0.135z"/><path fill="#BCC4C8" d="M0 2.43v0.27c0 0.447 0.363 0.81 0.81 0.81h3.915c-0.001 0 -0.002 -0.477 -0.003 -1.08z"/><path fill="#23475F" d="M6.615 0.675h-0.27c-0.012 0 -0.036 0.009 -0.068 0.024v2.518c0.031 0.014 0.056 0.024 0.068 0.024h0.27a0.135 0.135 0 0 0 0.135 -0.135V0.81a0.135 0.135 0 0 0 -0.135 -0.135"/><path fill="#00A185" d="M1.35 1.417v-0.386c-0.04 0.023 -0.068 0.066 -0.068 0.116v0.338h0.086A0.135 0.135 0 0 1 1.35 1.417"/><path fill="#23475F" d="M1.55 4.05c0.122 0.177 0.301 0.405 0.408 0.405h2.565c0.149 0 0.203 -0.053 0.203 -0.202"/><path fill="#23475F" d="M1.55 4.05c0.122 0.177 0.301 0.405 0.408 0.405h2.565c0.149 0 0.203 -0.053 0.203 -0.202V4.05z"/></svg>